<?xml version="1.0" encoding="utf-8"?>
<!-- Generator: Adobe Illustrator 26.3.0, SVG Export Plug-In . SVG Version: 6.00 Build 0)  -->
<svg version="1.1" id="Layer_1" xmlns="http://www.w3.org/2000/svg" xmlns:xlink="http://www.w3.org/1999/xlink" x="0px" y="0px"
	 viewBox="0 0 1080 514.36" style="enable-background:new 0 0 1080 514.36;" xml:space="preserve">
<style type="text/css">
	.st0{fill:#2E9596;}
	.st1{fill:#255073;}
</style>
<g>
	<path class="st0" d="M551.56,278.72h-11.9v-21.16h-21.82v21.16h-11.86v-52.67h11.86v21.01h21.82v-21.01h11.9V278.72z"/>
	<path class="st0" d="M593.02,278.72h-10.98v-4.22h-0.15c-1.4,1.71-3.03,3-4.9,3.86s-3.97,1.29-6.3,1.29
		c-3.18,0-5.94-0.99-8.26-2.96c-2.33-1.97-3.49-4.68-3.49-8.14c0-3.35,1.11-6.16,3.34-8.43c2.23-2.26,5.51-3.63,9.84-4.1l9.99-1.07
		v-1.14c0-1.84-0.58-3.22-1.75-4.15c-1.16-0.93-2.61-1.4-4.35-1.4c-1.74,0-3.27,0.4-4.59,1.21s-2.52,2.01-3.6,3.6l-7.75-4.63
		c1.35-2.15,3.5-4.07,6.46-5.75s6.46-2.52,10.5-2.52c5.19,0,9.15,1.33,11.88,4c2.73,2.67,4.1,6.69,4.1,12.05V278.72z M582.12,263.44
		v-1.43l-7.49,0.73c-1.74,0.2-3.01,0.68-3.8,1.45c-0.8,0.77-1.19,1.82-1.19,3.14c0,1.18,0.44,2.15,1.32,2.92
		c0.88,0.77,2,1.16,3.34,1.16c2.3,0,4.18-0.75,5.64-2.26C581.39,267.65,582.12,265.74,582.12,263.44z"/>
	<path class="st0" d="M599.01,273.91l5.47-7.05c1.91,1.79,3.67,3.01,5.29,3.67s3.27,0.99,4.96,0.99s2.98-0.29,3.88-0.86
		c0.89-0.58,1.34-1.43,1.34-2.55c0-0.86-0.43-1.58-1.29-2.17c-0.86-0.59-2.24-1-4.15-1.25c-5-0.73-8.56-2.11-10.69-4.11
		c-2.13-2.01-3.2-4.63-3.2-7.86c0-3.55,1.3-6.53,3.91-8.93c2.61-2.4,6.14-3.6,10.6-3.6c2.64,0,5.14,0.37,7.49,1.1
		c2.35,0.73,4.36,1.85,6.02,3.34l-5.62,6.72c-1.45-1.08-2.8-1.87-4.06-2.37c-1.26-0.5-2.58-0.75-3.95-0.75
		c-1.54,0-2.66,0.28-3.36,0.83c-0.7,0.55-1.05,1.33-1.05,2.33c0,0.86,0.44,1.58,1.32,2.17c0.88,0.59,2.44,1,4.67,1.25
		c4.41,0.51,7.76,1.76,10.05,3.73c2.29,1.97,3.43,4.77,3.43,8.39c0,3.87-1.46,6.95-4.39,9.26c-2.93,2.3-6.64,3.45-11.15,3.45
		c-3.06,0-5.95-0.48-8.67-1.43C603.16,277.25,600.87,275.82,599.01,273.91z"/>
	<path class="st0" d="M667.95,278.72h-10.98v-4.22h-0.15c-1.4,1.71-3.03,3-4.9,3.86c-1.87,0.86-3.97,1.29-6.3,1.29
		c-3.18,0-5.94-0.99-8.26-2.96c-2.33-1.97-3.49-4.68-3.49-8.14c0-3.35,1.11-6.16,3.34-8.43c2.23-2.26,5.51-3.63,9.84-4.1l9.99-1.07
		v-1.14c0-1.84-0.58-3.22-1.74-4.15c-1.16-0.93-2.61-1.4-4.35-1.4c-1.74,0-3.27,0.4-4.59,1.21s-2.52,2.01-3.6,3.6l-7.75-4.63
		c1.35-2.15,3.5-4.07,6.46-5.75s6.46-2.52,10.5-2.52c5.19,0,9.15,1.33,11.88,4c2.73,2.67,4.1,6.69,4.1,12.05V278.72z M657.04,263.44
		v-1.43l-7.49,0.73c-1.74,0.2-3.01,0.68-3.8,1.45c-0.8,0.77-1.19,1.82-1.19,3.14c0,1.18,0.44,2.15,1.32,2.92
		c0.88,0.77,2,1.16,3.34,1.16c2.3,0,4.18-0.75,5.64-2.26S657.04,265.74,657.04,263.44z"/>
	<path class="st0" d="M712.73,278.72h-11.57v-21.6c0-2.4-0.51-4.32-1.54-5.75s-2.56-2.15-4.59-2.15c-2.03,0-3.71,0.76-5.03,2.28
		c-1.32,1.52-1.98,3.44-1.98,5.77v21.45H676.4v-37.61h11.61v4.77h0.15c1.22-1.71,2.93-3.09,5.11-4.13c2.18-1.04,4.37-1.56,6.57-1.56
		c4.24,0,7.44,1.32,9.62,3.97s3.27,6.38,3.27,11.2V278.72z"/>
	<path class="st1" d="M500.91,368.99l18.88-52.67h14.07l18.44,52.67H539.8l-3.64-10.54h-19.32l-3.56,10.54H500.91z M519.56,348.75
		h13.77l-5.62-18.4c-0.2-0.66-0.38-1.27-0.55-1.82c-0.17-0.55-0.34-1.19-0.51-1.93h-0.29c-0.15,0.61-0.31,1.21-0.48,1.8
		c-0.17,0.59-0.37,1.22-0.59,1.91L519.56,348.75z"/>
	<path class="st1" d="M557.4,368.99V313.3H569v55.68H557.4z"/>
	<path class="st1" d="M578.4,352.97v-8.12h20.09v8.12H578.4z"/>
	<path class="st1" d="M644.04,368.99h-11.57v-21.6c0-2.4-0.51-4.32-1.54-5.75s-2.56-2.15-4.59-2.15c-2.03,0-3.71,0.76-5.03,2.28
		c-1.32,1.52-1.98,3.44-1.98,5.77v21.45h-11.61v-37.61h11.61v4.77h0.15c1.22-1.71,2.93-3.09,5.11-4.13
		c2.18-1.04,4.37-1.56,6.57-1.56c4.24,0,7.44,1.32,9.62,3.97s3.27,6.38,3.27,11.2V368.99z"/>
	<path class="st1" d="M683.78,368.99H672.8v-4.22h-0.15c-1.4,1.71-3.03,3-4.9,3.86c-1.87,0.86-3.97,1.29-6.3,1.29
		c-3.18,0-5.94-0.99-8.26-2.96c-2.33-1.97-3.49-4.68-3.49-8.14c0-3.35,1.11-6.16,3.34-8.43c2.23-2.26,5.51-3.63,9.84-4.1l9.99-1.07
		v-1.14c0-1.84-0.58-3.22-1.74-4.15c-1.16-0.93-2.61-1.4-4.35-1.4c-1.74,0-3.27,0.4-4.59,1.21s-2.52,2.01-3.6,3.6l-7.75-4.63
		c1.35-2.15,3.5-4.07,6.46-5.75s6.46-2.52,10.5-2.52c5.19,0,9.15,1.33,11.88,4c2.73,2.67,4.1,6.69,4.1,12.05V368.99z M672.87,353.71
		v-1.43l-7.49,0.73c-1.74,0.2-3.01,0.68-3.8,1.45c-0.8,0.77-1.19,1.82-1.19,3.14c0,1.18,0.44,2.15,1.32,2.92
		c0.88,0.77,2,1.16,3.34,1.16c2.3,0,4.18-0.75,5.64-2.26S672.87,356.01,672.87,353.71z"/>
	<path class="st1" d="M689.77,364.17l5.47-7.05c1.91,1.79,3.67,3.01,5.29,3.67s3.27,0.99,4.96,0.99s2.98-0.29,3.88-0.86
		c0.89-0.58,1.34-1.43,1.34-2.55c0-0.86-0.43-1.58-1.29-2.17c-0.86-0.59-2.24-1-4.15-1.25c-5-0.73-8.56-2.11-10.69-4.11
		c-2.13-2.01-3.2-4.63-3.2-7.86c0-3.55,1.3-6.53,3.91-8.93c2.61-2.4,6.14-3.6,10.6-3.6c2.64,0,5.14,0.37,7.49,1.1
		c2.35,0.73,4.36,1.85,6.02,3.34l-5.62,6.72c-1.45-1.08-2.8-1.87-4.06-2.37c-1.26-0.5-2.58-0.75-3.95-0.75
		c-1.54,0-2.66,0.28-3.36,0.83c-0.7,0.55-1.05,1.33-1.05,2.33c0,0.86,0.44,1.58,1.32,2.17c0.88,0.59,2.44,1,4.67,1.25
		c4.41,0.51,7.76,1.76,10.05,3.73c2.29,1.97,3.43,4.77,3.43,8.39c0,3.87-1.46,6.95-4.39,9.26c-2.93,2.3-6.64,3.45-11.15,3.45
		c-3.06,0-5.95-0.48-8.67-1.43C693.92,367.52,691.63,366.08,689.77,364.17z"/>
	<path class="st1" d="M761.21,353.49h-24.54c0.17,2.42,1.01,4.35,2.52,5.79c1.51,1.43,3.48,2.15,5.93,2.15
		c1.49,0,2.86-0.37,4.09-1.1c1.24-0.73,2.34-1.84,3.32-3.31l8.52,4.85c-2.16,2.79-4.57,4.83-7.24,6.12
		c-2.67,1.29-5.63,1.93-8.89,1.93c-6.22,0-11.07-1.68-14.54-5.05c-3.48-3.37-5.22-8.06-5.22-14.09c0-6.24,1.81-11.19,5.44-14.84
		c3.62-3.65,8.08-5.47,13.37-5.47c5.48,0,9.73,1.63,12.73,4.89c3,3.26,4.5,8.15,4.5,14.69V353.49z M750.45,346.14
		c0-2.57-0.54-4.5-1.63-5.79c-1.09-1.29-2.55-1.93-4.39-1.93c-2.2,0-3.99,0.73-5.34,2.2c-1.36,1.47-2.19,3.31-2.48,5.51H750.45z"/>
	<path class="st1" d="M792.39,341.51c-0.81-0.27-1.6-0.47-2.39-0.61c-0.78-0.13-1.55-0.2-2.31-0.2c-2.3,0-4.18,0.92-5.62,2.77
		c-1.44,1.85-2.17,4.37-2.17,7.55v17.96H768.3v-37.61h11.61v6.68h0.15c0.91-2.45,2.19-4.28,3.86-5.51c1.67-1.22,3.66-1.84,5.99-1.84
		c0.91,0,1.77,0.07,2.59,0.2c0.82,0.13,1.63,0.36,2.44,0.68L792.39,341.51z"/>
</g>
<g>
	<rect x="355.48" y="262.24" class="st0" width="82.01" height="32.9"/>
	<path class="st0" d="M471.04,143.66V370.7h-39.41V143.66H471.04z"/>
</g>
<g>
	<g>
		<path class="st0" d="M518.93,149.87h-6.75v20.73h-4v-20.73h-6.73v-3.4h17.48V149.87z"/>
		<path class="st0" d="M548.44,170.6h-3.97V155.2c0-0.64,0-1.25,0.02-1.84c0.01-0.59,0.03-1.26,0.05-2.01h-0.08
			c-0.11,0.33-0.21,0.61-0.3,0.87s-0.18,0.52-0.29,0.8l-7.08,17.58h-2.76l-7.1-17.43c-0.1-0.25-0.2-0.5-0.29-0.77
			c-0.1-0.26-0.22-0.61-0.36-1.05h-0.1c0.03,0.67,0.06,1.36,0.07,2.06c0.01,0.7,0.02,1.47,0.02,2.3v14.89h-3.75v-24.12h5.69
			l6.27,15.68c0.24,0.58,0.43,1.07,0.57,1.47c0.15,0.4,0.29,0.83,0.44,1.3h0.1c0.19-0.54,0.37-1.03,0.54-1.46s0.34-0.89,0.52-1.36
			l6.38-15.63h5.43V170.6z"/>
	</g>
</g>
<polygon class="st1" points="332.58,143.66 406.59,237.31 367.26,237.31 332.58,192.83 332.58,370.7 293.17,370.7 293.17,143.66 "/>
</svg>
